<svg 
  xmlns="http://www.w3.org/2000/svg" 
  xmlns:xlink="http://www.w3.org/1999/xlink" 
  width="125" 
  height="22" 
  viewBox="0 0 125 22" 
  style="display: block;">
  <path
  fill-rule="evenodd" 
  fill="#000000" 
  d="M14.45,14.58c-0.21-0.26-0.38-0.73-0.38-1.06V0.9c0-0.5-0.4-0.9-0.9-0.9h-1.45c-0.5,0-0.9,0.4-0.9,0.9v13.49c0,0.5,0.26,1.21,0.57,1.6l4.38,5.32C16.1,21.69,16.76,22,17.25,22h2.47c0.33,0,0.49-0.44,0.28-0.7L14.45,14.58z M124.9,21.3l-5.54-6.72c-0.21-0.26-0.38-0.73-0.38-1.06V0.9c0-0.5-0.4-0.9-0.9-0.9h-1.45c-0.5,0-0.9,0.4-0.9,0.9v13.49c0,0.5,0.26,1.21,0.57,1.6l4.38,5.32c0.32,0.38,0.97,0.69,1.47,0.69h2.47C124.96,22,125.11,21.56,124.9,21.3z M28.13,0h-1.45c-0.5,0-0.9,0.4-0.9,0.9v16.37c0,0.33-0.17,0.81-0.38,1.06l-0.66,0.79c-0.21,0.25-0.56,0.25-0.77,0l-0.66-0.79c-0.21-0.25-0.38-0.73-0.38-1.06V0.9c0-0.5-0.4-0.9-0.9-0.9h-1.45c-0.5,0-0.9,0.4-0.9,0.9v17.25c0,0.5,0.26,1.21,0.58,1.59l1.3,1.56c0.32,0.38,0.98,0.69,1.47,0.69h2.64c0.5,0,1.16-0.31,1.47-0.69l1.3-1.56c0.32-0.38,0.58-1.09,0.58-1.59V0.9C29.03,0.4,28.62,0,28.13,0z M71.64,0.69C71.32,0.31,70.66,0,70.17,0h-2.8c-0.5,0-1.16,0.31-1.47,0.69l-1.22,1.46c-0.32,0.38-0.58,1.09-0.58,1.59v14.41c0,0.5,0.27,1.2,0.6,1.57l1.45,1.61c0.33,0.37,1,0.67,1.5,0.67h2.44c0.5,0,1.16-0.31,1.47-0.69l1.3-1.56c0.32-0.38,0.58-1.09,0.58-1.59V3.75c0-0.5-0.26-1.21-0.58-1.59L71.64,0.69z M70.2,17.27c0,0.33-0.17,0.81-0.38,1.06l-0.66,0.79c-0.21,0.25-0.56,0.25-0.77,0l-0.66-0.79c-0.21-0.25-0.38-0.73-0.38-1.06V4.63c0-0.33,0.17-0.81,0.38-1.06l0.66-0.79c0.21-0.25,0.56-0.25,0.77,0l0.66,0.79c0.21,0.25,0.38,0.73,0.38,1.06V17.27z M58.17,0.69C57.85,0.31,57.19,0,56.7,0h-2.47c-0.33,0-0.49,0.44-0.28,0.7l4.93,5.98c0.21,0.26,0.21,0.67,0,0.93l-5.23,6.36c-0.32,0.38-0.32,1.01,0,1.39l4.9,5.95c0.32,0.38,0.97,0.69,1.47,0.69h2.47c0.33,0,0.49-0.44,0.28-0.7l-5.1-6.18c-0.21-0.26-0.21-0.67,0-0.93l5.23-6.35c0.32-0.38,0.32-1.01,0-1.39L58.17,0.69z M112.87,0.69C112.55,0.31,111.89,0,111.39,0h-2.8c-0.5,0-1.16,0.31-1.47,0.69l-1.22,1.46c-0.32,0.38-0.58,1.09-0.58,1.59v14.41c0,0.5,0.26,1.21,0.58,1.59l1.3,1.56c0.32,0.38,0.98,0.69,1.47,0.69h2.64c0.5,0,1.16-0.31,1.47-0.69l1.3-1.56c0.32-0.38,0.58-1.09,0.58-1.59V3.75c0-0.5-0.26-1.21-0.58-1.59L112.87,0.69z M111.42,17.27c0,0.33-0.17,0.81-0.38,1.06l-0.66,0.79c-0.21,0.25-0.56,0.25-0.77,0l-0.66-0.79c-0.21-0.25-0.38-0.73-0.38-1.06V4.63c0-0.33,0.17-0.81,0.38-1.06l0.66-0.79c0.21-0.25,0.56-0.25,0.77,0l0.66,0.79c0.21,0.25,0.38,0.73,0.38,1.06V17.27z M82.65,0.22H75.1c-0.5,0-0.9,0.4-0.9,0.9v1.45c0,0.5,0.4,0.9,0.9,0.9h1.56c0.33,0,0.6,0.27,0.6,0.6V21.1c0,0.5,0.4,0.9,0.9,0.9h1.45c0.5,0,0.9-0.4,0.9-0.9V4.08c0-0.33,0.27-0.6,0.6-0.6h1.56c0.5,0,0.9-0.4,0.9-0.9V1.12C83.55,0.63,83.15,0.22,82.65,0.22z M91.89,0.69C91.57,0.31,90.91,0,90.41,0h-2.8c-0.5,0-1.16,0.31-1.47,0.69l-1.22,1.46c-0.32,0.38-0.58,1.09-0.58,1.59v14.41c0,0.5,0.26,1.21,0.58,1.59l1.3,1.56C86.54,21.69,87.2,22,87.69,22h2.64c0.5,0,1.16-0.31,1.47-0.69l1.31-1.56c0.32-0.38,0.58-1.09,0.58-1.59V3.75c0-0.5-0.26-1.21-0.58-1.59L91.89,0.69z M90.44,17.27c0,0.33-0.17,0.81-0.38,1.06l-0.66,0.79c-0.21,0.25-0.56,0.25-0.77,0l-0.66-0.79c-0.21-0.25-0.38-0.73-0.38-1.06V4.63c0-0.33,0.17-0.81,0.38-1.06l0.66-0.79c0.21-0.25,0.56-0.25,0.77,0l0.66,0.79c0.21,0.25,0.38,0.73,0.38,1.06V17.27z M55.26,7.47L49.79,0.7C49.48,0.31,48.83,0,48.33,0h-2.38c-0.5,0-0.9,0.4-0.9,0.9v20.18c0,0.5,0.4,0.9,0.9,0.9h1.46c0.5,0,0.9-0.4,0.9-0.9v-2.85c0-0.5,0.14-0.9,0.45-1.28l6.51-8.08C55.57,8.48,55.57,7.86,55.26,7.47zM51.34,8.71L48.68,12c-0.21,0.26-0.38,0.2-0.38-0.13V4.62c0-0.33,0.17-0.39,0.38-0.13l2.66,3.29C51.55,8.04,51.55,8.45,51.34,8.71zM102.45,0.69C102.13,0.31,101.47,0,100.98,0h-2.8c-0.5,0-1.16,0.31-1.47,0.69l-1.22,1.46c-0.32,0.38-0.58,1.09-0.58,1.59v14.41c0,0.5,0.26,1.21,0.58,1.59l1.3,1.56C97.1,21.69,97.76,22,98.26,22h2.64c0.5,0,1.16-0.31,1.47-0.69l1.3-1.56c0.32-0.38,0.58-1.09,0.58-1.59V16.8c0-0.33-0.27-0.6-0.6-0.6h-2.05c-0.33,0-0.6,0.24-0.6,0.53v0.53c0,0.33-0.17,0.81-0.38,1.06l-0.66,0.79c-0.21,0.25-0.56,0.25-0.77,0l-0.66-0.79c-0.21-0.25-0.38-0.73-0.38-1.06V4.63c0-0.33,0.17-0.81,0.38-1.06l0.66-0.79c0.21-0.25,0.56-0.25,0.77,0c0,0,0.66,0.79,0.66,0.79c0.21,0.25,0.38,0.73,0.38,1.06c0,0,0,0.26,0,0.58c0,0.32,0.27,0.58,0.6,0.58h2.05c0.33,0,0.6-0.27,0.6-0.6V3.75c0-0.5-0.26-1.21-0.58-1.59L102.45,0.69z M121.04,0.85v1.49c0,0.03,0.03,0.05,0.06,0.05c0.03,0,0.06-0.02,0.06-0.05V0.85h0.66c0.03,0,0.05-0.02,0.05-0.04s-0.02-0.04-0.05-0.04h-1.44c-0.03,0-0.05,0.02-0.05,0.04s0.02,0.04,0.05,0.04H121.04z M122.21,2.35L122.21,2.35l0-1.02V0.9c0-0.03,0.01-0.04,0.01-0.04c0.01,0,0.02,0.01,0.02,0.03c0,0,0.18,0.38,0.19,0.4l0.43,0.99c0.03,0.07,0.07,0.11,0.1,0.11c0.03,0,0.07-0.04,0.1-0.11l0.41-0.95c0.01-0.03,0.2-0.44,0.2-0.44c0.01-0.01,0.02-0.03,0.03-0.03c0.01,0,0.01,0.01,0.01,0.03c0,0,0,0.38,0,0.44l0,1v0c0,0.03,0.03,0.05,0.05,0.05c0.03,0,0.05-0.02,0.05-0.05V0.84c0-0.06-0.07-0.09-0.13-0.09c-0.04,0-0.07,0.01-0.08,0.03l-0.48,1.1C123.14,1.91,123,2.21,123,2.21c-0.01,0.01-0.02,0.02-0.03,0.02c-0.01,0-0.02-0.01-0.03-0.02c0,0-0.14-0.3-0.15-0.33l-0.48-1.1c-0.01-0.02-0.04-0.03-0.08-0.03c-0.06,0-0.13,0.03-0.13,0.11v1.49c0,0.04,0.03,0.06,0.05,0.06C122.19,2.41,122.21,2.39,122.21,2.35z M34.78,5.64c-0.24-0.23-0.23-0.59,0.01-0.82l4.59-4.16C39.62,0.44,39.44,0,39.11,0h-2.94c-0.5,0-1.2,0.27-1.56,0.6l-4.36,3.95c-0.37,0.33-0.38,0.88-0.02,1.23l4.99,4.77c0.24,0.23,0.24,0.6,0,0.83l-4.99,4.85c-0.36,0.35-0.35,0.9,0.02,1.23l4.35,3.94c0.37,0.33,1.07,0.6,1.56,0.6h2.94c0.33,0,0.52-0.44,0.27-0.66l-4.6-4.17c-0.25-0.22-0.25-0.59-0.01-0.82l4.92-4.78c0.36-0.35,0.35-0.91-0.01-1.25L34.78,5.64z M9.73,5.78c0.36-0.34,0.35-0.89-0.02-1.23L5.35,0.6C4.98,0.27,4.28,0,3.78,0H0.84C0.51,0,0.32,0.44,0.57,0.66l4.59,4.16C5.4,5.04,5.41,5.41,5.17,5.64l-4.9,4.68C0.09,10.49,0,10.72,0,10.94c0,0.23,0.09,0.45,0.27,0.63l4.92,4.78c0.24,0.23,0.23,0.6-0.01,0.82l-4.6,4.17C0.32,21.56,0.51,22,0.84,22h2.94c0.5,0,1.2-0.27,1.56-0.6l4.35-3.94c0.37-0.33,0.38-0.88,0.02-1.23l-4.99-4.85c-0.24-0.23-0.24-0.6,0-0.83L9.73,5.78z">
  </path>
</svg>